<svg width="2440" height="853" viewBox="0 0 2440 853" fill="none" xmlns="http://www.w3.org/2000/svg">
<path d="M1085.41 67.6825C1088.49 67.6879 1091.58 67.6903 1094.67 67.6923C1124.34 67.7232 1153.88 68.0834 1183.46 70.7692C1186.04 71.0042 1188.63 71.2299 1191.22 71.4544C1273.43 78.6816 1353.33 97.7939 1613 205C1613.93 205.561 1614.86 206.122 1615.82 206.701C1624.78 212.122 1633.68 217.626 1642.31 223.563C1642.88 223.946 1643.46 224.329 1644.04 224.723C1647.35 226.986 1650.35 229.25 1653.15 232.119C1663.6 242.27 1674.55 242.447 1688.48 242.257C1690.65 242.212 1692.81 242.16 1694.97 242.108C1698.74 242.031 1702.51 242.029 1706.29 242.026C1707.05 242.026 1707.81 242.025 1708.59 242.024C1710.14 242.022 1711.69 242.021 1713.24 242.02C1715.58 242.016 1717.92 242.004 1720.26 241.991C1735.37 241.917 1750.41 242.507 1765.5 243.313C1766.75 243.378 1768.01 243.444 1769.3 243.512C1848.34 247.694 1927.26 255.925 2005 271C2005.89 271.173 2006.78 271.345 2007.7 271.523C2048.07 279.377 2087.87 289.315 2127 302C2127.64 302.208 2128.28 302.415 2128.95 302.629C2169.78 315.857 2209.44 332.807 2246.19 355.063C2247.31 355.743 2247.31 355.743 2248.46 356.436C2249.49 357.073 2249.49 357.073 2250.54 357.723C2251.14 358.092 2251.74 358.46 2252.36 358.84C2254.11 360.075 2255.53 361.446 2257 363C2252.89 362.409 2249.3 361.007 2245.47 359.475C2154.96 323.312 2048.63 317.205 1929.11 310.003C1926.91 309.881 1924.71 309.756 1922.52 309.631C1912.31 309.054 1902.11 308.569 1891.9 308.128C1888.86 307.994 1885.82 307.854 1882.78 307.713C1849.01 306.183 1815.33 305.923 1781.53 306.234C1776.27 306.281 1771 306.32 1765.73 306.36C1761.47 306.392 1757.21 306.426 1752.95 306.459C1751.35 306.472 1751.35 306.472 1749.73 306.484C1737.72 306.579 1725.71 306.699 1713.7 306.871C1703.97 307.01 1694.24 307.103 1684.5 307.142C1679.41 307.165 1674.31 307.21 1669.22 307.314C1664.47 307.41 1659.72 307.445 1654.97 307.434C1653.25 307.441 1651.52 307.469 1649.8 307.523C1639.75 307.821 1633.45 306.685 1625.84 299.785C1624.12 298.109 1622.43 296.406 1620.75 294.684C1617.79 291.832 1614.5 289.427 1611.19 287C1610.07 286.172 1610.07 286.172 1608.94 285.326C1608.35 284.896 1607.76 284.467 1607.15 284.024C1604.34 281.974 1601.53 279.917 1598.73 277.852C1529.26 226.913 1450.52 189.229 1197.06 122.125C1196.01 121.97 1196.01 121.97 1194.93 121.811C1193.91 121.662 1193.91 121.662 1192.87 121.509C1191.98 121.38 1191.98 121.38 1191.08 121.248C1175.92 119.199 1160.81 118.833 1145.54 118.797C1143.67 118.79 1141.81 118.783 1139.95 118.776C1133.99 118.757 1128.02 118.752 1122.06 118.75C1121.05 118.75 1120.03 118.749 1118.98 118.749C1085.92 118.735 1053.05 119.323 1020.07 121.772C1017 122 1013.93 122.22 1010.86 122.438C938.1 127.674 865.676 137.524 794 151C792.868 151.213 791.736 151.425 790.57 151.644C691.085 170.384 592.99 196.69 497.312 229.75C418.666 256.915 337.474 277.637 256.401 296.216C252.772 297.053 249.147 297.907 245.522 298.761C243.075 299.327 240.627 299.892 238.18 300.457C237.047 300.728 235.914 300.998 234.746 301.276C233.688 301.518 232.629 301.759 231.539 302.007C230.611 302.224 229.684 302.44 228.729 302.663C223.7 303.284 219.867 302.317 215.777 299.403C215.002 298.857 214.227 298.31 213.428 297.748C212.606 297.15 211.784 296.553 210.938 295.938C210.07 295.318 209.202 294.698 208.308 294.06C193.764 283.6 179.488 272.798 166 261C165.27 260.37 164.541 259.74 163.789 259.09C161.848 257.406 159.921 255.707 158 254C157.188 253.281 156.376 252.562 155.539 251.821C153.01 249.565 150.5 247.289 148 245C147.404 244.46 146.809 243.92 146.195 243.364C136.628 234.277 125.135 221.31 123 208C127.141 208.524 131.196 209.225 135.281 210.086C146.934 212.531 158.547 214.493 170.402 215.641C171.388 215.737 171.388 215.737 172.393 215.834C187.248 217.245 202.073 217.477 216.989 217.387C219.108 217.375 221.226 217.368 223.345 217.362C244.926 217.293 266.363 216.716 287.818 214.25C290.073 213.992 292.329 213.744 294.584 213.496C330.404 209.524 365.933 203.298 401.188 195.875C402.626 195.576 402.626 195.576 404.094 195.27C422.245 191.465 439.772 186.195 457.314 180.221C557.857 146.079 661.641 119.985 975.875 71.8128C976.842 71.7338 977.809 71.6548 978.805 71.5734C1014.31 68.7052 1049.79 67.6169 1085.41 67.6825Z" fill="white"/>
<path d="M720 379C730.567 388.962 740.573 399.149 749 411C749.471 411.653 749.942 412.307 750.427 412.98C774.885 447.241 791.854 489.984 792.239 532.492C792.248 533.387 792.258 534.282 792.268 535.205C792.438 554.791 792.409 573.81 788 593C787.679 594.415 787.679 594.415 787.351 595.859C779.265 630.28 763.526 663.427 740 690C739.334 690.775 738.667 691.549 737.981 692.347C698.066 737.891 642.995 765.435 582.489 769.687C524.928 773.198 465.97 755.179 422.461 716.758C420.755 715.226 419.055 713.688 417.364 712.14C415.3 710.271 413.195 708.477 411.063 706.687C370.405 670.99 346.658 613.995 343.145 560.742C340.016 501.572 357.822 441.979 397.813 397.5C398.536 396.724 399.259 395.948 400.004 395.148C401.824 393.189 403.537 391.177 405.25 389.125C441.481 347.848 497.228 324.918 551.063 320.312C613.21 316.836 674.058 336.469 720 379ZM470 431C469.026 431.842 468.051 432.683 467.047 433.551C439.625 457.608 421.47 492.602 418 529C415.399 571.859 426.246 611.058 454.5 643.937C469.012 660.319 485.989 673.114 506 682C506.916 682.413 506.916 682.413 507.849 682.834C536.556 695.619 569.321 699.002 600 692C600.816 691.817 601.632 691.634 602.472 691.446C629.718 685.096 653.098 671.441 673 652C673.848 651.213 674.697 650.427 675.571 649.617C701.497 624.991 717.217 587.144 718.203 551.574C718.769 509.007 704.646 470.716 675 440C674.211 439.148 673.422 438.296 672.61 437.418C662.103 426.372 649.448 418.038 636 411C634.843 410.394 633.685 409.788 632.492 409.164C580.213 382.839 513.6 392.495 470 431Z" fill="white"/>
<path d="M813 456C838.08 456 863.16 456 889 456C893.499 464.998 893.499 464.998 894.992 468.974C895.5 470.317 895.5 470.317 896.018 471.686C896.372 472.634 896.725 473.582 897.09 474.558C897.471 475.569 897.853 476.579 898.246 477.62C899.059 479.778 899.872 481.936 900.682 484.094C902.794 489.718 904.92 495.338 907.047 500.957C907.468 502.071 907.89 503.186 908.325 504.334C912.035 514.128 915.832 523.887 919.688 533.625C919.965 534.326 920.243 535.028 920.529 535.75C922.015 539.502 923.505 543.252 925 547C927.669 541.814 930.026 536.656 932.074 531.199C932.356 530.46 932.637 529.722 932.927 528.961C933.534 527.368 934.139 525.774 934.743 524.18C936.377 519.867 938.027 515.56 939.676 511.254C940.021 510.351 940.367 509.448 940.723 508.517C944.502 498.662 948.356 488.837 952.232 479.02C952.994 477.09 953.755 475.159 954.515 473.228C955.577 470.529 956.644 467.83 957.711 465.133C958.19 463.915 958.19 463.915 958.678 462.673C960.885 457.115 960.885 457.115 962 456C964.178 455.905 966.359 455.882 968.539 455.886C969.222 455.886 969.905 455.886 970.609 455.886C972.876 455.886 975.143 455.894 977.41 455.902C978.978 455.904 980.546 455.905 982.114 455.906C986.249 455.91 990.383 455.92 994.518 455.931C998.734 455.941 1002.95 455.946 1007.17 455.951C1015.44 455.962 1023.72 455.979 1032 456C1029.96 463.346 1027.37 470.341 1024.46 477.383C1024.02 478.457 1023.58 479.532 1023.12 480.639C1022.18 482.94 1021.24 485.239 1020.29 487.538C1018.02 493.043 1015.77 498.552 1013.52 504.062C1012.76 505.914 1012 507.766 1011.24 509.617C1007.17 519.558 1003.16 529.521 999.188 539.5C992.753 555.638 986.28 571.76 979.787 587.874C978.698 590.577 977.61 593.28 976.522 595.983C971.242 609.105 965.943 622.22 960.531 635.289C960.14 636.24 959.748 637.19 959.345 638.17C954.105 650.757 948.31 662.893 939 673C938.179 673.912 937.358 674.825 936.512 675.765C919.766 693.504 898.391 699.288 874.66 700.027C855.434 700.209 836.243 695.434 820 685C819.67 684.34 819.34 683.68 819 683C819.69 681.09 819.69 681.09 820.852 678.722C821.502 677.382 821.502 677.382 822.165 676.014C822.647 675.04 823.129 674.066 823.625 673.062C824.634 670.989 825.643 668.916 826.652 666.843C827.462 665.19 827.462 665.19 828.289 663.504C830.988 657.978 833.647 652.433 836.31 646.889C837.718 643.957 839.131 641.027 840.543 638.097C841.018 637.113 841.492 636.128 841.981 635.113C842.317 634.416 842.654 633.718 843 633C847.945 634.132 852.254 636.429 856.809 638.625C864.185 641.803 872.947 642.376 880.562 639.625C883.978 638.246 883.978 638.246 886 636C885.666 631.045 883.824 626.774 881.852 622.281C881.528 621.527 881.203 620.773 880.87 619.997C880.165 618.358 879.457 616.721 878.746 615.084C876.8 610.599 874.878 606.104 872.953 601.609C872.548 600.665 872.143 599.72 871.726 598.747C867.18 588.121 862.773 577.438 858.375 566.75C856.771 562.855 855.167 558.961 853.562 555.066C853.174 554.122 852.785 553.178 852.384 552.205C848.739 543.355 845.061 534.52 841.375 525.687C840.779 524.257 840.182 522.827 839.586 521.397C839.29 520.687 838.994 519.976 838.688 519.244C838.241 518.172 838.241 518.172 837.785 517.078C837.486 516.361 837.187 515.643 836.879 514.904C836.253 513.404 835.627 511.903 835.002 510.402C834.304 508.729 833.606 507.056 832.908 505.382C830.585 499.811 828.265 494.239 825.948 488.666C825.202 486.873 824.455 485.081 823.707 483.289C822.663 480.786 821.622 478.282 820.582 475.777C820.278 475.051 819.975 474.326 819.662 473.578C817.254 467.767 815.157 461.93 813 456Z" fill="white"/>
<path d="M1747 448C1764.08 447.917 1781.16 447.835 1798.75 447.75C1804.1 447.713 1809.45 447.677 1814.97 447.639C1821.61 447.621 1821.61 447.621 1824.73 447.618C1826.87 447.612 1829.02 447.598 1831.16 447.577C1849.85 447.407 1868 448.486 1885 457C1885.91 457.417 1886.81 457.835 1887.75 458.265C1902.58 465.588 1913.7 478.394 1919.44 493.875C1924.98 513.049 1924.4 533.743 1915.31 551.75C1908.94 562.667 1899.44 571.093 1889 578C1891.42 581.571 1893.84 585.141 1896.26 588.711C1897.13 589.985 1897.99 591.259 1898.86 592.533C1903.38 599.202 1907.9 605.867 1912.46 612.511C1913.47 613.988 1913.47 613.988 1914.51 615.495C1915.76 617.325 1917.02 619.154 1918.28 620.981C1918.84 621.808 1919.41 622.635 1920 623.488C1920.48 624.195 1920.97 624.902 1921.47 625.63C1923.44 628.686 1925.22 631.83 1927 635C1918.28 635.56 1909.57 635.984 1900.84 636.243C1896.78 636.368 1892.74 636.536 1888.69 636.81C1862.71 638.526 1862.71 638.526 1855.02 632.767C1849.88 627.151 1846.47 620.765 1843.32 613.878C1841.7 610.344 1839.79 607.167 1837.72 603.879C1836.08 601.183 1834.47 598.504 1832.96 595.736C1831.14 592.594 1831.14 592.594 1827 589C1821.72 588.67 1816.44 588.34 1811 588C1811 603.51 1811 619.02 1811 635C1789.88 635 1768.76 635 1747 635C1747 573.29 1747 511.58 1747 448ZM1811 497C1811 511.19 1811 525.38 1811 540C1815.25 540.062 1819.5 540.123 1823.88 540.187C1825.85 540.228 1825.85 540.228 1827.87 540.27C1837.49 540.337 1846.39 539.602 1853.59 532.652C1857.97 527.505 1858.49 522.144 1858.29 515.648C1857.6 509.309 1854.91 505.112 1850 501C1844.11 497.562 1839.14 496.871 1832.39 496.902C1831.26 496.905 1830.14 496.907 1828.98 496.91C1827.56 496.919 1826.15 496.928 1824.69 496.937C1817.91 496.968 1817.91 496.968 1811 497Z" fill="white"/>
<path d="M1567 448C1587.79 448 1608.58 448 1630 448C1633.62 455.244 1637.14 462.373 1640.33 469.793C1640.71 470.685 1641.1 471.577 1641.5 472.497C1642.32 474.403 1643.15 476.31 1643.97 478.218C1646.18 483.352 1648.41 488.48 1650.63 493.609C1651.08 494.652 1651.53 495.695 1652 496.77C1656.36 506.842 1660.77 516.892 1665.19 526.938C1671.33 540.908 1677.45 554.891 1683.54 568.885C1687.68 578.391 1691.83 587.891 1696 597.383C1696.62 598.798 1696.62 598.798 1697.25 600.241C1699.26 604.817 1701.28 609.392 1703.29 613.967C1704.01 615.616 1704.74 617.265 1705.46 618.914C1705.79 619.661 1706.12 620.408 1706.46 621.178C1707.31 623.116 1708.16 625.057 1709 627C1709.4 627.93 1709.81 628.86 1710.22 629.818C1711 632 1711 632 1711 635C1689.22 635 1667.44 635 1645 635C1643.02 629.926 1641.04 624.852 1639 619.625C1638.37 618.025 1637.75 616.425 1637.1 614.776C1636.61 613.51 1636.12 612.243 1635.62 610.977C1635.37 610.317 1635.11 609.658 1634.84 608.979C1633 604.228 1633 604.228 1633 602C1609.9 602 1586.8 602 1563 602C1562.01 605.3 1561.02 608.6 1560 612C1557.03 619.59 1554.06 627.18 1551 635C1529.55 635 1508.1 635 1486 635C1489.38 624.873 1489.38 624.873 1491.5 620C1491.99 618.888 1492.47 617.775 1492.97 616.629C1493.5 615.432 1494.02 614.234 1494.56 613C1495.13 611.696 1495.7 610.392 1496.27 609.088C1498.17 604.722 1500.09 600.361 1502 596C1502.7 594.408 1503.4 592.815 1504.1 591.223C1507.08 584.415 1510.07 577.607 1513.06 570.801C1518.23 559.043 1523.37 547.276 1528.5 535.5C1536.96 516.063 1545.48 496.651 1554.01 477.245C1555.25 474.441 1556.48 471.637 1557.71 468.832C1558.99 465.909 1560.28 462.986 1561.56 460.062C1562.01 459.044 1562.46 458.026 1562.92 456.977C1563.32 456.068 1563.72 455.159 1564.13 454.223C1564.64 453.059 1564.64 453.059 1565.16 451.871C1565.75 450.568 1566.36 449.278 1567 448ZM1597 513C1594.72 518.962 1592.44 524.925 1590.16 530.889C1589.39 532.92 1588.61 534.95 1587.84 536.98C1586.72 539.891 1585.61 542.803 1584.5 545.715C1584.15 546.628 1583.8 547.542 1583.44 548.483C1583.12 549.324 1582.8 550.165 1582.47 551.031C1582.18 551.775 1581.9 552.519 1581.61 553.285C1580.94 554.854 1580.94 554.854 1581 556C1592.22 556 1603.44 556 1615 556C1613.13 549.765 1611.27 543.807 1608.86 537.805C1608.58 537.086 1608.29 536.368 1608 535.628C1607.11 533.375 1606.21 531.125 1605.31 528.875C1604.7 527.331 1604.09 525.787 1603.47 524.242C1601.99 520.493 1600.5 516.746 1599 513C1598.34 513 1597.68 513 1597 513Z" fill="white"/>
<path d="M2121 459C2120.28 464.118 2118.24 468.678 2116.29 473.422C2115.92 474.323 2115.55 475.223 2115.17 476.151C2114.39 478.048 2113.61 479.944 2112.83 481.84C2111.63 484.749 2110.44 487.666 2109.26 490.582C2108.5 492.425 2107.74 494.268 2106.98 496.11C2106.62 496.986 2106.27 497.862 2105.91 498.764C2105.4 499.971 2105.4 499.971 2104.89 501.202C2104.45 502.269 2104.45 502.269 2104 503.357C2103 505 2103 505 2100 506C2098.08 505.443 2098.08 505.443 2095.89 504.489C2095.08 504.144 2094.27 503.8 2093.44 503.446C2092.57 503.072 2091.7 502.698 2090.81 502.313C2079.35 497.545 2067.52 493.546 2055 493C2054.22 492.96 2053.43 492.92 2052.62 492.879C2044.89 492.674 2037.44 493.401 2030.38 496.688C2027.26 499.716 2027.08 501.724 2027 506C2027.65 509.123 2027.65 509.123 2030.04 510.043C2033.77 511.25 2037.52 512.318 2041.31 513.313C2042.13 513.529 2042.95 513.746 2043.8 513.969C2050.55 515.712 2057.35 517.13 2064.19 518.5C2086.29 523 2107.83 529.171 2122 548C2129.76 560.747 2130.78 575.102 2127.94 589.625C2123.48 606.566 2112.78 618.277 2098 627C2080.38 637 2061.73 639.233 2041.75 639.25C2041.04 639.251 2040.33 639.252 2039.6 639.252C2012.15 639.211 1983.83 634.322 1960 620C1961.96 613.741 1964.3 607.778 1967.01 601.809C1967.38 600.978 1967.76 600.147 1968.14 599.291C1969.32 596.672 1970.5 594.055 1971.69 591.438C1972.49 589.648 1973.3 587.858 1974.1 586.069C1976.06 581.71 1978.03 577.355 1980 573C1983.02 574.195 1986.01 575.432 1988.98 576.77C2006.24 584.409 2022.97 589.157 2041.94 589.25C2042.98 589.271 2044.03 589.291 2045.11 589.313C2051.87 589.347 2058.29 589.161 2063.7 584.552C2065.24 583.015 2065.24 583.015 2065.25 580.5C2065.08 577.873 2065.08 577.873 2064 575C2061.72 573.853 2061.72 573.853 2059 573C2058.18 572.692 2057.36 572.384 2056.51 572.066C2046.84 568.687 2036.94 566.696 2026.93 564.651C2005.59 560.264 1982.33 553.698 1969.57 534.727C1962.32 522.159 1960.96 506.742 1964.12 492.688C1969.09 475.882 1980.15 463.091 1995.23 454.442C2032.78 434.874 2084.19 440.658 2121 459Z" fill="white"/>
<path d="M1460.41 471.324C1463.11 474.113 1465.56 476.989 1468 480C1466.5 483.624 1464.44 485.631 1461.5 488.187C1460.6 488.972 1459.71 489.757 1458.79 490.566C1457.87 491.369 1456.95 492.172 1456 493C1454.29 494.538 1452.58 496.08 1450.87 497.625C1447.28 500.856 1443.67 504.054 1440.03 507.226C1436.33 510.46 1432.67 513.732 1429 517C1425.51 515.529 1423.53 513.596 1421 510.812C1411.72 501.38 1400.31 496.16 1387.06 495.625C1375.11 496.104 1364.56 499.525 1355.94 508.035C1345.58 520.338 1344.03 534.596 1345 550C1346.73 561.397 1351.85 571.839 1361 579C1372.67 586.191 1385.84 588.052 1399.23 585.347C1408.83 582.119 1421.27 575.449 1426 566C1429.94 566.56 1431.89 568.442 1434.75 571.125C1436.07 572.351 1436.07 572.351 1437.42 573.601C1438.7 574.788 1438.7 574.788 1440 576C1441.33 577.173 1442.66 578.34 1444 579.5C1448.72 583.61 1453.35 587.807 1458 592C1459.87 593.687 1461.75 595.375 1463.62 597.062C1465.08 598.375 1466.54 599.687 1468 601C1457 620.003 1435.5 630.368 1415.12 635.812C1384.48 643.907 1351.34 639.383 1323.76 624.048C1319.45 621.484 1315.73 618.321 1312 615C1310.9 614.131 1310.9 614.131 1309.78 613.246C1292.98 599.549 1283.05 578.148 1280 557C1279.79 552.691 1279.77 548.385 1279.76 544.071C1279.75 542.033 1279.72 539.995 1279.69 537.957C1279.5 514.312 1288.22 492.538 1304 475C1304.94 473.938 1304.94 473.938 1305.89 472.855C1321.53 456.165 1344.58 446.64 1367 444C1367.94 443.877 1368.88 443.755 1369.85 443.629C1402.92 440.164 1435.99 448.233 1460.41 471.324Z" fill="white"/>
<path d="M1189 160C1285.72 158.715 1377 194.77 1459 244C1460.88 245.119 1462.77 246.237 1464.65 247.356C1485.71 259.937 1506.13 273.616 1526 288C1526.76 288.546 1527.51 289.092 1528.29 289.654C1538.98 297.374 1549.37 305.36 1559.49 313.802C1560.93 314.948 1562.47 315.978 1564 317C1564 317.66 1564 318.32 1564 319C1414.84 319 1265.68 319 1112 319C1114.52 316.48 1115.75 316.584 1119.25 316.195C1120.37 316.066 1121.49 315.937 1122.65 315.804C1124.51 315.604 1124.51 315.604 1126.41 315.4C1128.37 315.178 1128.37 315.178 1130.38 314.951C1134.03 314.539 1137.68 314.138 1141.33 313.739C1145.26 313.307 1149.19 312.865 1153.12 312.424C1159.94 311.661 1166.75 310.905 1173.57 310.152C1183.43 309.064 1193.28 307.965 1203.14 306.864C1219.14 305.077 1235.13 303.298 1251.13 301.523C1266.67 299.8 1282.2 298.075 1297.74 296.347C1298.69 296.24 1299.65 296.134 1300.64 296.024C1311.07 294.862 1321.51 293.7 1331.95 292.536C1332.87 292.434 1333.78 292.332 1334.73 292.227C1338.39 291.818 1342.06 291.41 1345.72 291.001C1356.46 289.803 1367.21 288.608 1377.95 287.418C1384.69 286.671 1391.42 285.923 1398.16 285.172C1402.05 284.739 1405.94 284.307 1409.83 283.878C1413.39 283.485 1416.95 283.09 1420.51 282.692C1422.41 282.48 1424.32 282.271 1426.22 282.062C1427.9 281.873 1427.9 281.873 1429.62 281.68C1430.6 281.572 1431.57 281.464 1432.57 281.353C1435.13 281.054 1435.13 281.054 1438 280C1429.29 268.78 1420.33 258.636 1409 250C1408.45 249.578 1407.9 249.155 1407.34 248.72C1390.41 235.709 1372.04 225.566 1353 216C1352.21 215.601 1351.42 215.202 1350.61 214.79C1303.17 190.957 1250.32 175.221 1198.57 164.053C1197.44 163.806 1196.31 163.559 1195.15 163.305C1194.17 163.098 1193.19 162.892 1192.19 162.679C1191.46 162.455 1190.74 162.231 1190 162C1189.5 161.01 1189.5 161.01 1189 160Z" fill="white"/>
<path d="M1058 456C1079.12 456 1100.24 456 1122 456C1122 501.21 1122 546.42 1122 593C1149.72 593 1177.44 593 1206 593C1206 609.5 1206 626 1206 643C1157.16 643 1108.32 643 1058 643C1058 581.29 1058 519.58 1058 456Z" fill="white"/>
<path d="M93.0001 477C108.51 477 124.02 477 140 477C139.67 480.96 139.34 484.92 139 489C135.223 537.424 144.043 586.747 176.254 624.652C178.461 627.144 180.716 629.579 183 632C183.661 632.726 184.323 633.451 185.004 634.199C221.349 672.613 281.526 685.661 332.237 687.169C338.262 687.328 344.287 687.446 350.313 687.562C352.421 687.606 354.53 687.649 356.639 687.693C361.759 687.799 366.88 687.901 372 688C367.844 690.771 363.664 691.371 358.813 692.375C357.246 692.699 357.246 692.699 355.648 693.03C335.784 696.968 315.252 699.605 295 700C294.191 700.02 293.382 700.041 292.548 700.062C254.524 700.925 216.379 695.994 182 679C181.353 678.69 180.706 678.38 180.039 678.06C144.72 661.053 119.459 629.339 106 593C101.57 580.286 98.2783 567.263 96.0001 554C95.8491 553.161 95.6981 552.322 95.5425 551.458C91.3393 526.964 92.7453 501.745 93.0001 477Z" fill="white"/>
<path d="M1076 147C1075.39 156.939 1074.4 166.781 1073.17 176.663C1072.99 178.176 1072.81 179.688 1072.62 181.201C1072.13 185.263 1071.63 189.324 1071.13 193.385C1070.81 195.926 1070.5 198.467 1070.19 201.009C1069.1 209.884 1068.01 218.758 1066.92 227.633C1065.9 235.895 1064.89 244.158 1063.88 252.421C1063.01 259.535 1062.14 266.649 1061.26 273.762C1060.74 278.003 1060.21 282.243 1059.7 286.485C1059.22 290.464 1058.73 294.441 1058.23 298.418C1058.05 299.877 1057.87 301.336 1057.7 302.796C1057.46 304.787 1057.21 306.777 1056.96 308.767C1056.82 309.881 1056.68 310.995 1056.54 312.142C1056 315 1056 315 1054 319C1054 273.79 1054 228.58 1054 182C1023.52 182.285 1023.52 182.285 993.043 182.66C992.133 182.673 991.224 182.686 990.287 182.7C969.162 183.006 948.085 183.635 927 185C926.026 185.062 925.051 185.124 924.047 185.188C827.469 191.391 731.432 205.275 632 243C633.458 238.627 636.837 237.316 640.625 235.063C641.425 234.583 642.225 234.102 643.049 233.608C722.62 186.479 817.477 166.579 1000 148C1000.74 147.962 1001.48 147.923 1002.24 147.883C1026.81 146.623 1051.41 146.896 1076 147Z" fill="white"/>
<path d="M2307 500C2305.38 503.993 2302.57 506.712 2299.63 509.75C2275.01 535.846 2253.04 572.197 2253 609C2253.57 619.071 2255.81 627.847 2260 637C2260.42 637.935 2260.84 638.869 2261.27 639.832C2265.19 647.752 2270.82 653.817 2277 660C2277.73 660.732 2278.47 661.464 2279.22 662.219C2297.76 679.65 2323.21 689.323 2347 697C2347 697.33 2347 697.66 2347 698C2316.79 699.004 2286.59 699.113 2256.37 699.123C2253.27 699.125 2250.16 699.129 2247.06 699.133C2242.08 699.139 2237.09 699.139 2232.1 699.134C2230.25 699.133 2228.39 699.134 2226.54 699.136C2214.66 699.148 2202.86 698.787 2191 698C2190.05 638.841 2202.08 572.411 2244.38 528.312C2260.23 512.894 2284.25 500 2307 500Z" fill="white"/>
<path d="M2142 364.687C2142.82 364.689 2143.64 364.692 2144.49 364.694C2156.88 364.746 2168.89 365.181 2181 368C2181.86 368.193 2182.72 368.387 2183.61 368.586C2213.96 375.6 2241.11 389.83 2263.47 411.519C2264.94 412.941 2266.42 414.346 2267.91 415.75C2274.7 422.312 2280.52 429.344 2286 437C2286.41 437.561 2286.81 438.123 2287.23 438.701C2292.84 446.545 2297.65 454.739 2302.19 463.25C2302.68 464.168 2303.18 465.085 2303.69 466.031C2304.13 466.892 2304.58 467.753 2305.04 468.64C2305.65 469.793 2305.65 469.793 2306.26 470.97C2307 473 2307 473 2306 476C2305.53 475.299 2305.05 474.597 2304.57 473.875C2283.89 444.209 2244.82 433.318 2211 427C2206.03 426.164 2201.05 425.43 2196.06 424.75C2194.82 424.58 2193.57 424.41 2192.29 424.235C2185.97 423.433 2179.75 422.908 2173.38 422.805C2156.08 422.455 2156.08 422.455 2152.23 419.758C2149.45 416.56 2148.14 412.857 2146.77 408.9C2145.47 405.684 2143.41 403.126 2141.25 400.437C2140.83 399.908 2140.42 399.379 2139.99 398.833C2135.44 393.13 2130.44 387.832 2125.43 382.531C2122.5 379.391 2119.68 376.152 2116.84 372.926C2114.95 370.812 2114.95 370.812 2112 369C2112 368.34 2112 367.68 2112 367C2122.03 364.853 2131.8 364.639 2142 364.687Z" fill="white"/>
<path d="M104 242C104.66 242 105.32 242 106 242C107.139 243.501 108.209 245.054 109.25 246.625C117.383 258.08 127.99 267.377 139 276C140.129 276.917 141.257 277.836 142.382 278.758C155.364 289.343 168.949 299.094 182.874 308.399C186.259 310.685 189.217 312.972 192 316C191.508 316.24 191.016 316.48 190.509 316.728C178.365 322.721 167.442 329.365 157 338C156.452 338.45 155.905 338.899 155.341 339.362C125.435 364.304 111.66 400.545 106 438C105.849 438.98 105.698 439.959 105.542 440.969C104.668 446.642 103.821 452.319 103 458C102.01 458 101.02 458 99.9996 458C99.6252 409.972 100.011 362.01 101.437 314C101.471 312.854 101.505 311.707 101.54 310.526C101.768 302.809 102.004 295.092 102.246 287.375C102.276 286.398 102.307 285.42 102.338 284.414C102.785 270.271 103.357 256.135 104 242Z" fill="white"/>
<path d="M1067 665C1069.64 665 1072.28 665 1075 665C1078.63 675.56 1082.26 686.12 1086 697C1089.63 686.44 1093.26 675.88 1097 665C1099.31 665 1101.62 665 1104 665C1104.44 666.249 1104.44 666.249 1104.89 667.523C1105.98 670.616 1107.07 673.707 1108.16 676.798C1108.64 678.135 1109.11 679.473 1109.58 680.811C1110.25 682.736 1110.93 684.659 1111.62 686.582C1112.03 687.739 1112.43 688.897 1112.85 690.089C1113.93 693.125 1113.93 693.125 1116 696C1116.45 694.698 1116.45 694.698 1116.9 693.37C1118.01 690.153 1119.11 686.936 1120.22 683.72C1120.7 682.327 1121.17 680.934 1121.65 679.541C1122.34 677.54 1123.03 675.539 1123.71 673.539C1124.13 672.335 1124.54 671.13 1124.97 669.889C1126 667 1126 667 1127 665C1129.31 665 1131.62 665 1134 665C1131.77 673.76 1129 682.309 1126.13 690.874C1125.37 693.154 1124.61 695.436 1123.85 697.719C1123.37 699.169 1122.88 700.62 1122.4 702.07C1122.17 702.752 1121.95 703.435 1121.71 704.137C1120.12 708.885 1120.12 708.885 1119 710C1116.67 710.041 1114.33 710.042 1112 710C1109.12 703.045 1106.59 696.027 1104.25 688.875C1103.93 687.919 1103.62 686.962 1103.29 685.977C1102.53 683.652 1101.76 681.326 1101 679C1097.93 685.525 1095.52 692.137 1093.31 699C1092.71 700.876 1092.1 702.751 1091.49 704.625C1091.23 705.442 1090.96 706.26 1090.69 707.102C1090 709 1090 709 1089 710C1086.67 710.041 1084.33 710.042 1082 710C1078.57 701.895 1075.77 693.604 1073 685.256C1072.24 682.975 1071.48 680.697 1070.71 678.418C1070.23 676.966 1069.75 675.514 1069.27 674.062C1069.04 673.382 1068.81 672.702 1068.57 672.001C1067 667.23 1067 667.23 1067 665Z" fill="white"/>
<path d="M1852 665C1855.61 664.938 1859.22 664.877 1862.94 664.813C1864.62 664.772 1864.62 664.772 1866.33 664.73C1875.21 664.657 1883.03 666.164 1890 672C1894.59 678.302 1895.65 684.391 1895 692C1893.71 699.015 1889.69 702.958 1884 707C1874.94 712.462 1861.11 710 1852 710C1852 695.15 1852 680.3 1852 665ZM1859 672C1859 682.23 1859 692.46 1859 703C1861.68 703.062 1864.36 703.124 1867.12 703.188C1868.37 703.229 1868.37 703.229 1869.65 703.271C1875.65 703.337 1879.77 702.106 1884.25 697.875C1886.94 693.459 1888.47 689.026 1887.66 683.817C1886.01 678.654 1883.42 676.039 1879 673C1876.29 672.098 1874.76 671.882 1871.99 671.903C1871.31 671.905 1870.62 671.908 1869.92 671.91C1869.06 671.919 1868.2 671.928 1867.31 671.938C1864.57 671.958 1861.83 671.979 1859 672Z" fill="white"/>
<path d="M1457 665C1479 665 1479 665 1488 668C1493.04 673.162 1493.34 677 1493.29 684.004C1492.88 688.232 1491.94 689.974 1489 693C1486.86 693.645 1486.86 693.645 1485 694C1485.48 694.736 1485.96 695.472 1486.46 696.23C1487.09 697.206 1487.72 698.182 1488.38 699.188C1489 700.15 1489.63 701.113 1490.27 702.105C1491.82 704.698 1492.98 707.169 1494 710C1489.13 711.152 1489.13 711.152 1486 710C1484.43 707.869 1483.08 705.835 1481.75 703.562C1479.55 699.86 1478.02 697.343 1473.76 695.914C1470.09 695.594 1470.09 695.594 1465 696C1465 700.62 1465 705.24 1465 710C1462.36 710 1459.72 710 1457 710C1457 695.15 1457 680.3 1457 665ZM1465 672C1465 677.94 1465 683.88 1465 690C1474.85 690.991 1474.85 690.991 1483.94 688C1486.2 684.71 1486.93 682.874 1486.55 678.938C1485.79 676.273 1484.58 674.465 1482.33 672.832C1476.9 670.894 1470.63 671.753 1465 672Z" fill="white"/>
<path d="M1159 665C1165 665 1165 665 1167.61 667.352C1168.48 668.428 1169.34 669.52 1170.19 670.625C1170.65 671.202 1171.11 671.778 1171.59 672.373C1173.08 674.235 1174.54 676.117 1176 678C1177.03 679.293 1178.06 680.585 1179.09 681.875C1186.28 690.925 1186.28 690.925 1189 695C1189.33 685.1 1189.66 675.2 1190 665C1192.31 665 1194.62 665 1197 665C1197 679.85 1197 694.7 1197 710C1191 710 1191 710 1188.39 707.648C1187.52 706.572 1186.66 705.48 1185.81 704.375C1185.35 703.798 1184.89 703.222 1184.41 702.627C1182.92 700.765 1181.46 698.883 1180 697C1178.97 695.707 1177.94 694.415 1176.91 693.125C1169.72 684.075 1169.72 684.075 1167 680C1166.67 689.9 1166.34 699.8 1166 710C1163.69 710 1161.38 710 1159 710C1159 695.15 1159 680.3 1159 665Z" fill="white"/>
<path d="M1036.84 668.304C1041.54 671.988 1044.92 677.092 1046 683C1046.74 690.518 1045.2 696.212 1041.44 702.687C1035.94 707.908 1030.08 710.311 1022.5 710.625C1015.18 710.297 1009.26 708.356 1004.09 703.027C998.653 696.138 998.212 689.65 999.001 681C1001.06 673.798 1005.73 669.936 1012.06 666.187C1020.17 663.085 1029.4 664.065 1036.84 668.304ZM1010.19 676.375C1006.26 681.094 1005.46 684.876 1006 691C1007.78 695.669 1010.03 698.957 1014 702C1018.82 703.829 1023.33 704.584 1028.31 703C1033.23 700.753 1035.69 697.26 1038.38 692.625C1039.62 687.412 1038.72 683.376 1036.31 678.75C1032.83 674.604 1029.43 672.038 1024.06 671.062C1018.41 670.62 1014.45 672.775 1010.19 676.375Z" fill="white"/>
<path d="M1351.5 667.125C1356.68 670.11 1359.67 673.267 1362.31 678.688C1364.05 687.06 1363.76 694.696 1359 702C1354.74 706.908 1349.38 709.598 1343.02 710.356C1335.37 710.687 1329.13 709.814 1323 705C1317.64 698.752 1315.55 693.178 1315.67 684.984C1316.34 678.962 1318.61 674.057 1323.23 670.078C1331.83 664.186 1341.78 662.563 1351.5 667.125ZM1326.56 677.125C1323.46 681.145 1322.63 684.971 1323 690C1324.54 695.436 1327.05 699.21 1332 702C1336.5 703.825 1340.49 704.508 1345.19 703.063C1349.53 701.125 1352.42 697.936 1355 694C1356.54 689.379 1356.54 685.552 1354.94 680.938C1352.12 676.669 1348.97 673.069 1344.05 671.297C1337.21 670.058 1331.37 672.189 1326.56 677.125Z" fill="white"/>
<path d="M2083 665C2104 665 2104 665 2113 668C2117.16 672.161 2118.86 674.926 2119.25 680.812C2119.14 687.689 2115.76 691.366 2111 696C2111.65 696.927 2112.3 697.854 2112.97 698.809C2113.81 700.018 2114.66 701.228 2115.5 702.438C2116.14 703.355 2116.14 703.355 2116.8 704.291C2120 708.887 2120 708.887 2120 710C2115.17 711.053 2115.17 711.053 2112 710C2103 700.764 2103 700.764 2103 696C2098.71 696 2094.42 696 2090 696C2090 700.62 2090 705.24 2090 710C2087.69 710 2085.38 710 2083 710C2083 695.15 2083 680.3 2083 665ZM2090 672C2090 677.94 2090 683.88 2090 690C2092.37 690.062 2094.74 690.124 2097.19 690.188C2097.93 690.215 2098.66 690.242 2099.42 690.27C2103.82 690.326 2106.56 689.771 2110 687C2111.85 682.923 2112.33 680.959 2110.88 676.688C2108.87 673.808 2108.22 673.144 2105 672C2102.37 671.86 2099.87 671.811 2097.25 671.875C2093.66 671.937 2093.66 671.937 2090 672Z" fill="white"/>
<path d="M1611 665C1621.56 665 1632.12 665 1643 665C1643 667.31 1643 669.62 1643 672C1635.08 672 1627.16 672 1619 672C1619 675.96 1619 679.92 1619 684C1625.93 684 1632.86 684 1640 684C1640 685.98 1640 687.96 1640 690C1633.07 690 1626.14 690 1619 690C1619 694.29 1619 698.58 1619 703C1627.25 703 1635.5 703 1644 703C1644 705.31 1644 707.62 1644 710C1633.11 710 1622.22 710 1611 710C1611 695.15 1611 680.3 1611 665Z" fill="white"/>
<path d="M1792 665C1802.56 665 1813.12 665 1824 665C1824 667.31 1824 669.62 1824 672C1815.75 672 1807.5 672 1799 672C1799 675.96 1799 679.92 1799 684C1806.26 684 1813.52 684 1821 684C1821 685.98 1821 687.96 1821 690C1813.74 690 1806.48 690 1799 690C1799 694.29 1799 698.58 1799 703C1807.58 703 1816.16 703 1825 703C1825 705.31 1825 707.62 1825 710C1814.11 710 1803.22 710 1792 710C1792 695.15 1792 680.3 1792 665Z" fill="white"/>
<path d="M2032 665C2034.31 665 2036.62 665 2039 665C2044.19 674.965 2048.93 685.114 2053.5 695.375C2053.77 695.984 2054.05 696.593 2054.33 697.22C2055.11 698.965 2055.88 700.713 2056.66 702.461C2057.11 703.48 2057.56 704.499 2058.03 705.548C2059 708 2059 708 2059 710C2056.36 710 2053.72 710 2051 710C2050.33 708.544 2049.66 707.085 2049 705.625C2048.63 704.813 2048.26 704.001 2047.88 703.164C2047 701 2047 701 2047 699C2039.41 699 2031.82 699 2024 699C2023.01 701.97 2022.02 704.94 2021 708C2020.67 708.66 2020.34 709.32 2020 710C2017.36 710 2014.72 710 2012 710C2015.72 699.776 2020.15 690.004 2024.81 680.188C2025.51 678.705 2026.21 677.223 2026.91 675.74C2028.6 672.158 2030.3 668.578 2032 665ZM2035 674C2032.36 680.27 2029.72 686.54 2027 693C2032.61 693 2038.22 693 2044 693C2043.24 690.979 2042.47 688.957 2041.69 686.875C2041.04 685.17 2041.04 685.17 2040.39 683.43C2039.08 680.189 2037.61 677.102 2036 674C2035.67 674 2035.34 674 2035 674Z" fill="white"/>
<path d="M1684 665C1686.64 665 1689.28 665 1692 665C1694.22 669.856 1696.45 674.712 1698.67 679.569C1699.43 681.219 1700.18 682.869 1700.94 684.518C1702.03 686.899 1703.12 689.279 1704.21 691.66C1704.54 692.39 1704.88 693.119 1705.22 693.871C1706.15 695.911 1707.08 697.955 1708 700C1708.3 700.65 1708.6 701.3 1708.9 701.969C1710.18 704.834 1711 706.823 1711 710C1708.69 710 1706.38 710 1704 710C1702.35 706.7 1700.7 703.4 1699 700C1691.74 700 1684.48 700 1677 700C1675.35 703.3 1673.7 706.6 1672 710C1669.69 710 1667.38 710 1665 710C1665.66 705.08 1667.69 700.968 1669.78 696.523C1670.15 695.716 1670.53 694.909 1670.91 694.078C1672.1 691.508 1673.3 688.941 1674.5 686.375C1675.7 683.801 1676.89 681.226 1678.09 678.651C1678.83 677.051 1679.57 675.451 1680.32 673.853C1680.66 673.128 1680.99 672.404 1681.34 671.658C1681.64 671.022 1681.94 670.387 1682.24 669.732C1683.11 667.816 1683.11 667.816 1684 665ZM1687 675C1685.83 677.623 1684.66 680.248 1683.5 682.875C1683.17 683.621 1682.83 684.368 1682.49 685.137C1682.17 685.852 1681.86 686.568 1681.53 687.305C1681.09 688.294 1681.09 688.294 1680.64 689.304C1679.88 691.009 1679.88 691.009 1680 693C1685.28 693 1690.56 693 1696 693C1694.03 686.794 1691.75 680.901 1689 675C1688.34 675 1687.68 675 1687 675Z" fill="white"/>
<path d="M1764 668C1763.34 670.31 1762.68 672.62 1762 675C1761.43 674.783 1760.86 674.567 1760.28 674.344C1754.31 672.191 1749.43 671.106 1743.13 672.75C1740.89 673.824 1740.89 673.824 1739.94 675.875C1739.8 678.133 1739.8 678.133 1741.51 679.98C1745.24 683.003 1749.51 683.82 1754.07 684.978C1758.92 686.329 1761.76 687.932 1765 692C1766.56 695.885 1766.21 699.286 1765.06 703.25C1762.2 707.061 1759.59 708.725 1755 710C1746.97 711.003 1738.97 710.455 1732 706C1731 703 1731 703 1731.94 700.812C1732.29 700.214 1732.64 699.616 1733 699C1739 701 1739 701 1741.94 702.125C1746.47 703.42 1750.32 703.439 1754.88 702.25C1757.11 701.175 1757.11 701.175 1758.06 699.125C1758.2 696.867 1758.2 696.867 1756.49 695.019C1752.76 691.997 1748.49 691.179 1743.93 690.021C1739.08 688.671 1736.24 687.068 1733 683C1731.44 679.115 1731.79 675.714 1732.94 671.75C1740.26 661.986 1753.95 663.271 1764 668Z" fill="white"/>
<path d="M1390 665C1392.31 665 1394.62 665 1397 665C1397.01 665.877 1397.03 666.755 1397.04 667.659C1397.1 670.935 1397.18 674.211 1397.26 677.488C1397.29 678.902 1397.32 680.316 1397.35 681.73C1397.38 683.771 1397.43 685.811 1397.49 687.852C1397.51 689.077 1397.54 690.302 1397.57 691.565C1398.04 695.314 1399.04 697.783 1401 701C1404.42 702.915 1408.24 703.355 1412.07 702.582C1414.63 701.611 1416.58 700.602 1418.16 698.331C1419.31 695.125 1419.33 692.23 1419.41 688.828C1419.43 688.146 1419.45 687.463 1419.47 686.76C1419.53 684.59 1419.58 682.42 1419.62 680.25C1419.66 678.775 1419.7 677.299 1419.74 675.824C1419.84 672.216 1419.92 668.608 1420 665C1422.31 665 1424.62 665 1427 665C1427.07 669.59 1427.13 674.179 1427.16 678.77C1427.18 680.329 1427.2 681.889 1427.23 683.448C1427.26 685.697 1427.28 687.946 1427.29 690.195C1427.31 690.886 1427.32 691.577 1427.34 692.289C1427.34 697.611 1426.12 701.674 1422.5 705.645C1415.94 710.751 1410.08 710.538 1402 710C1396.69 708.294 1394.2 705.389 1391 701C1389.81 697.431 1389.87 694.201 1389.9 690.488C1389.9 689.76 1389.9 689.032 1389.91 688.282C1389.91 685.958 1389.92 683.636 1389.94 681.312C1389.94 679.736 1389.95 678.16 1389.95 676.584C1389.96 672.723 1389.98 668.861 1390 665Z" fill="white"/>
<path d="M1990 668C1992.44 669.688 1992.44 669.688 1994 671C1993.06 673.427 1992.54 674.72 1990.19 675.938C1988 676 1988 676 1985.75 674.625C1981.57 672.158 1977.56 671.48 1972.85 672.438C1968.23 673.952 1965.68 675.815 1963 680C1961.15 683.698 1961.66 687.956 1962 692C1963.73 697.205 1966.13 699.519 1971 702C1977.2 703.501 1981.32 702.859 1987 700C1987.99 699.34 1988.98 698.68 1990 698C1991.32 699.32 1992.64 700.64 1994 702C1992.63 705.368 1991.42 706.727 1988.12 708.25C1981.29 711.034 1973.75 711.095 1966.69 709C1960.85 706.454 1956.45 700.769 1954 695C1952.56 688.943 1952.5 682.762 1955 677C1963.1 665.07 1976.98 660.521 1990 668Z" fill="white"/>
<path d="M1256 665C1260.93 664.092 1260.93 664.092 1264 665C1266.97 668.117 1268.93 671.744 1271 675.5C1271.88 677.002 1271.88 677.002 1272.77 678.535C1274.21 681.009 1275.61 683.496 1277 686C1278.98 682.876 1280.96 679.751 1282.94 676.625C1283.78 675.291 1283.78 675.291 1284.65 673.93C1285.18 673.079 1285.72 672.228 1286.28 671.352C1286.77 670.566 1287.27 669.78 1287.78 668.971C1289.02 667.028 1289.02 667.028 1290 665C1292.64 665 1295.28 665 1298 665C1296.61 668.765 1294.87 672.062 1292.78 675.484C1291.85 677.01 1291.85 677.01 1290.9 678.566C1290.25 679.617 1289.6 680.668 1288.94 681.75C1288.29 682.816 1287.64 683.882 1286.97 684.98C1282.15 692.85 1282.15 692.85 1281 694C1280.76 696.692 1280.58 699.365 1280.44 702.062C1280.39 702.821 1280.35 703.58 1280.31 704.361C1280.2 706.241 1280.1 708.12 1280 710C1277.69 710 1275.38 710 1273 710C1273.11 709.074 1273.23 708.149 1273.34 707.195C1274.23 692.166 1265.57 681.214 1257.45 669.344C1256 667 1256 667 1256 665Z" fill="white"/>
<path d="M1556 665C1558.31 665 1560.62 665 1563 665C1563 677.54 1563 690.08 1563 703C1570.92 703 1578.84 703 1587 703C1587 705.31 1587 707.62 1587 710C1576.77 710 1566.54 710 1556 710C1556 695.15 1556 680.3 1556 665Z" fill="white"/>
</svg>
